HIERARCHY
ROOT Hips
{
	OFFSET 0.000000 0.000000 0.000000
	CHANNELS 6 Xposition Yposition Zposition Xrotation Yrotation Zrotation
	JOINT C_ctrl
	{
		OFFSET 0.000000 35.040482 -0.000011
		CHANNELS 3 Xrotation Yrotation Zrotation
		JOINT Bip01
		{
			OFFSET -41.537640 41.789009 -0.000007
			CHANNELS 3 Xrotation Yrotation Zrotation
			JOINT Bip01_Pelvis
			{
				OFFSET -2.462887 0.000000 0.000000
				CHANNELS 3 Xrotation Yrotation Zrotation
				JOINT BN_Tail_01
				{
					OFFSET -11.399368 7.351341 -0.000013
					CHANNELS 3 Xrotation Yrotation Zrotation
					JOINT BN_Tail_02
					{
						OFFSET -11.365196 -0.343025 0.000012
						CHANNELS 3 Xrotation Yrotation Zrotation
						JOINT BN_Tail_03
						{
							OFFSET -15.076256 -0.454979 0.000017
							CHANNELS 3 Xrotation Yrotation Zrotation
							JOINT BN_Tail_04
							{
								OFFSET -17.395691 -0.525002 0.000016
								CHANNELS 3 Xrotation Yrotation Zrotation
								JOINT BN_Tail_05
								{
									OFFSET -16.699837 -0.504005 0.000016
									CHANNELS 3 Xrotation Yrotation Zrotation
									End Site
									{
										OFFSET 0.503998 -16.699829 0.000067
									}
								}
							}
						}
					}
				}
				JOINT Bip01_Spine
				{
					OFFSET 8.297798 5.916809 -0.000020
					CHANNELS 3 Xrotation Yrotation Zrotation
					JOINT Bip01_R_Thigh
					{
						OFFSET -8.297779 -5.916794 10.541781
						CHANNELS 3 Xrotation Yrotation Zrotation
						JOINT Bip01_R_Calf
						{
							OFFSET 5.631542 -22.906792 0.862690
							CHANNELS 3 Xrotation Yrotation Zrotation
							JOINT Bip01_R_HorseLink
							{
								OFFSET -16.984341 -19.231926 -3.555767
								CHANNELS 3 Xrotation Yrotation Zrotation
								JOINT Bip01_R_Foot
								{
									OFFSET 4.290367 -24.783146 0.578056
									CHANNELS 3 Xrotation Yrotation Zrotation
									JOINT Bip01_R_Toe0
									{
										OFFSET 3.561211 -5.815116 0.760802
										CHANNELS 3 Xrotation Yrotation Zrotation
										JOINT Bip01_R_Toe0Nub
										{
											OFFSET 16.135469 0.002017 1.534789
											CHANNELS 3 Xrotation Yrotation Zrotation
											End Site
											{
												OFFSET -0.000002 16.208284 -0.000056
											}
										}
									}
								}
							}
						}
					}
					JOINT Bip01_L_Thigh
					{
						OFFSET -8.297813 -5.916832 -10.541739
						CHANNELS 3 Xrotation Yrotation Zrotation
						JOINT Bip01_L_Calf
						{
							OFFSET 5.631535 -22.906792 -0.862625
							CHANNELS 3 Xrotation Yrotation Zrotation
							JOINT Bip01_L_HorseLink
							{
								OFFSET -16.984318 -19.231949 3.555875
								CHANNELS 3 Xrotation Yrotation Zrotation
								JOINT Bip01_L_Foot
								{
									OFFSET 4.290367 -24.783169 -0.577965
									CHANNELS 3 Xrotation Yrotation Zrotation
									JOINT Bip01_L_Toe0
									{
										OFFSET 3.561245 -5.815111 -0.760799
										CHANNELS 3 Xrotation Yrotation Zrotation
										JOINT Bip01_L_Toe0Nub
										{
											OFFSET 6.574303 -0.000005 -1.538561
											CHANNELS 3 Xrotation Yrotation Zrotation
											End Site
											{
												OFFSET 0.000004 -6.751935 0.000023
											}
										}
									}
								}
							}
						}
					}
					JOINT Bip01_Spine1
					{
						OFFSET 20.556803 -4.626213 -0.000025
						CHANNELS 3 Xrotation Yrotation Zrotation
						JOINT Saddle
						{
							OFFSET 17.608810 18.174690 -0.000143
							CHANNELS 3 Xrotation Yrotation Zrotation
							End Site
							{
								OFFSET -0.000063 -0.000061 -22.448387
							}
						}
						JOINT BN_center
						{
							OFFSET 10.743275 -13.417107 -0.172041
							CHANNELS 3 Xrotation Yrotation Zrotation
							End Site
							{
								OFFSET 22.434088 0.553078 -0.579614
							}
						}
						JOINT Bip01_Spine2
						{
							OFFSET 24.765072 -2.054115 -0.000032
							CHANNELS 3 Xrotation Yrotation Zrotation
							JOINT Handle
							{
								OFFSET 63.735676 16.430748 -16.052464
								CHANNELS 3 Xrotation Yrotation Zrotation
								JOINT IK_Chain01
								{
									OFFSET -4.713058 -6.020439 0.185448
									CHANNELS 3 Xrotation Yrotation Zrotation
									End Site
									{
										OFFSET -0.000023 -0.000023 -7.648071
									}
								}
							}
							JOINT BN_hair04_01
							{
								OFFSET 1.987491 16.256981 -2.049672
								CHANNELS 3 Xrotation Yrotation Zrotation
								JOINT BN_hair04_02
								{
									OFFSET -1.318762 -3.831451 -6.174704
									CHANNELS 3 Xrotation Yrotation Zrotation
									JOINT BN_hair04_03
									{
										OFFSET -0.827490 -5.886627 -5.656666
										CHANNELS 3 Xrotation Yrotation Zrotation
										End Site
										{
											OFFSET -2.658262 5.010620 -5.929780
										}
									}
								}
							}
							JOINT Bip01_Neck
							{
								OFFSET 25.574577 9.433014 -0.000084
								CHANNELS 3 Xrotation Yrotation Zrotation
								JOINT Bip01_R_Clavicle
								{
									OFFSET -16.535652 0.011192 6.705692
									CHANNELS 3 Xrotation Yrotation Zrotation
									JOINT Bip01_R_UpperArm
									{
										OFFSET 20.272621 -12.959984 2.510816
										CHANNELS 3 Xrotation Yrotation Zrotation
										JOINT Bip01_R_Forearm
										{
											OFFSET -13.633509 -15.503704 -0.653585
											CHANNELS 3 Xrotation Yrotation Zrotation
											JOINT Bip01_R_Hand
											{
												OFFSET 2.580030 -27.804676 -1.136415
												CHANNELS 3 Xrotation Yrotation Zrotation
												JOINT Bip01_R_Finger0
												{
													OFFSET -0.281744 -19.659061 -0.398649
													CHANNELS 3 Xrotation Yrotation Zrotation
													JOINT Bip01_Xtra02
													{
														OFFSET 4.152210 -5.712314 0.433813
														CHANNELS 3 Xrotation Yrotation Zrotation
														JOINT Bip01_Xtra02Nub
														{
															OFFSET 15.457960 0.041654 0.507982
															CHANNELS 3 Xrotation Yrotation Zrotation
															End Site
															{
																OFFSET -15.421730 -0.157725 -1.163459
															}
														}
													}
													JOINT Bip01_R_Finger0Nub
													{
														OFFSET 8.362326 -9.718440 -0.143142
														CHANNELS 3 Xrotation Yrotation Zrotation
														End Site
														{
															OFFSET -1.213036 -0.198171 9.872291
														}
													}
												}
											}
										}
									}
								}
								JOINT Bip01_L_Clavicle
								{
									OFFSET -16.535673 0.011162 -6.705583
									CHANNELS 3 Xrotation Yrotation Zrotation
									JOINT Bip01_L_UpperArm
									{
										OFFSET 20.272615 -12.959999 -2.510836
										CHANNELS 3 Xrotation Yrotation Zrotation
										JOINT Bip01_L_Forearm
										{
											OFFSET -13.633495 -15.503681 0.653678
											CHANNELS 3 Xrotation Yrotation Zrotation
											JOINT Bip01_L_Hand
											{
												OFFSET 2.579988 -27.804686 1.136487
												CHANNELS 3 Xrotation Yrotation Zrotation
												JOINT Bip01_L_Finger0
												{
													OFFSET -0.281765 -19.659058 0.398696
													CHANNELS 3 Xrotation Yrotation Zrotation
													JOINT Bip01_Xtra01
													{
														OFFSET 4.083549 -5.738758 -0.666714
														CHANNELS 3 Xrotation Yrotation Zrotation
														JOINT Bip01_Xtra01Nub
														{
															OFFSET 6.758158 -0.395525 -0.023239
															CHANNELS 3 Xrotation Yrotation Zrotation
															End Site
															{
																OFFSET 6.764923 -0.254147 -0.029908
															}
														}
													}
													JOINT Bip01_L_Finger0Nub
													{
														OFFSET -0.012636 -9.629153 0.045740
														CHANNELS 3 Xrotation Yrotation Zrotation
														End Site
														{
															OFFSET 0.988407 0.004791 8.293357
														}
													}
												}
											}
										}
									}
								}
								JOINT BN_hair03_01
								{
									OFFSET -5.894140 16.270622 -2.498433
									CHANNELS 3 Xrotation Yrotation Zrotation
									JOINT BN_hair03_02
									{
										OFFSET -0.189278 -7.800507 -6.219162
										CHANNELS 3 Xrotation Yrotation Zrotation
										JOINT BN_hair03_03
										{
											OFFSET 0.612345 -10.844475 -3.370718
											CHANNELS 3 Xrotation Yrotation Zrotation
											End Site
											{
												OFFSET -2.273296 2.862007 -10.769416
											}
										}
									}
								}
								JOINT Bip01_Neck1
								{
									OFFSET 9.383755 11.908699 -0.000007
									CHANNELS 3 Xrotation Yrotation Zrotation
									JOINT BN_hair02_01
									{
										OFFSET 9.126320 18.808022 -1.420810
										CHANNELS 3 Xrotation Yrotation Zrotation
										JOINT BN_hair02_02
										{
											OFFSET 0.393478 -5.181091 -5.248574
											CHANNELS 3 Xrotation Yrotation Zrotation
											JOINT BN_hair02_03
											{
												OFFSET 0.762280 -8.167076 -0.230047
												CHANNELS 3 Xrotation Yrotation Zrotation
												End Site
												{
													OFFSET -0.025837 -1.251419 -8.109770
												}
											}
										}
									}
									JOINT Bip01_Head
									{
										OFFSET 14.266129 10.475403 -0.000008
										CHANNELS 3 Xrotation Yrotation Zrotation
										JOINT BN_Reins_01
										{
											OFFSET 18.547455 -15.740112 -0.000035
											CHANNELS 3 Xrotation Yrotation Zrotation
											JOINT BN_Reins_02
											{
												OFFSET -5.372810 -5.884506 0.000028
												CHANNELS 3 Xrotation Yrotation Zrotation
												JOINT BN_Reins_03
												{
													OFFSET -6.395866 -15.947449 0.000070
													CHANNELS 3 Xrotation Yrotation Zrotation
													JOINT BN_Halter_R_01
													{
														OFFSET -1.234055 -3.096100 7.096737
														CHANNELS 3 Xrotation Yrotation Zrotation
														End Site
														{
															OFFSET 10.514435 -4.176861 -0.000004
														}
													}
													JOINT BN_Halter_L_01
													{
														OFFSET -1.234062 -3.096146 -7.096726
														CHANNELS 3 Xrotation Yrotation Zrotation
														End Site
														{
															OFFSET -10.514435 4.176865 -0.000000
														}
													}
													JOINT BN_Reins_04
													{
														OFFSET -6.737644 -16.971684 0.000074
														CHANNELS 3 Xrotation Yrotation Zrotation
														JOINT BN_Halter_R_02
														{
															OFFSET -4.688869 -11.781956 7.096771
															CHANNELS 3 Xrotation Yrotation Zrotation
															End Site
															{
																OFFSET 14.669624 -5.827511 -0.000006
															}
														}
														JOINT BN_Halter_L_02
														{
															OFFSET -4.688892 -11.782017 -7.096693
															CHANNELS 3 Xrotation Yrotation Zrotation
															End Site
															{
																OFFSET -14.669624 5.827507 -0.000002
															}
														}
														JOINT BN_Reins_05
														{
															OFFSET -6.822578 -16.971161 0.000074
															CHANNELS 3 Xrotation Yrotation Zrotation
															JOINT BN_Reins_06
															{
																OFFSET -6.140354 -15.095148 0.000066
																CHANNELS 3 Xrotation Yrotation Zrotation
																End Site
																{
																	OFFSET -15.095150 6.140352 -0.000002
																}
															}
														}
													}
												}
											}
										}
										JOINT BN_hair01_01
										{
											OFFSET 8.957344 8.870956 0.112121
											CHANNELS 3 Xrotation Yrotation Zrotation
											JOINT BN_hair01_02
											{
												OFFSET 6.002075 -2.962952 -3.121264
												CHANNELS 3 Xrotation Yrotation Zrotation
												End Site
												{
													OFFSET 5.917702 3.813591 -2.232396
												}
											}
										}
										JOINT BN_Eyebrow_R
										{
											OFFSET 11.795959 -0.430496 4.449781
											CHANNELS 3 Xrotation Yrotation Zrotation
											JOINT Bip01_Xtra06Nub
											{
												OFFSET 2.936661 -0.262573 3.246701
												CHANNELS 3 Xrotation Yrotation Zrotation
												End Site
												{
													OFFSET 2.768745 0.208199 3.394807
												}
											}
										}
										JOINT BN_Eyebrow_L
										{
											OFFSET 11.586395 -0.445618 -4.441728
											CHANNELS 3 Xrotation Yrotation Zrotation
											JOINT Bip01_Xtra05Nub
											{
												OFFSET 3.244698 -0.349442 -4.416700
												CHANNELS 3 Xrotation Yrotation Zrotation
												End Site
												{
													OFFSET 3.053162 0.072495 -4.564033
												}
											}
										}
										JOINT Bip01_R_Ear_01
										{
											OFFSET 7.142960 7.567184 4.311657
											CHANNELS 3 Xrotation Yrotation Zrotation
											JOINT Bip01_Xtra04Nub
											{
												OFFSET 9.464531 9.264214 1.682953
												CHANNELS 3 Xrotation Yrotation Zrotation
												End Site
												{
													OFFSET 8.448181 10.159340 1.910823
												}
											}
										}
										JOINT Bip01__L_Ear_01
										{
											OFFSET 7.214943 7.717056 -4.356771
											CHANNELS 3 Xrotation Yrotation Zrotation
											JOINT Bip01_Xtra03Nub
											{
												OFFSET 9.230225 8.944366 -2.322746
												CHANNELS 3 Xrotation Yrotation Zrotation
												End Site
												{
													OFFSET 8.170288 9.841324 -2.643566
												}
											}
										}
										JOINT Bip01_Jaw
										{
											OFFSET 9.196068 -4.110695 -0.000013
											CHANNELS 3 Xrotation Yrotation Zrotation
											JOINT Bip01_Ponytail1Nub
											{
												OFFSET 10.976463 -21.082108 -0.000053
												CHANNELS 3 Xrotation Yrotation Zrotation
												End Site
												{
													OFFSET 11.247093 -20.938980 0.000113
												}
											}
										}
										JOINT Bip01_HeadNub
										{
											OFFSET 29.954575 -18.249489 -0.000063
											CHANNELS 3 Xrotation Yrotation Zrotation
											End Site
											{
												OFFSET -9.198448 -13.366348 0.000168
											}
										}
									}
								}
							}
						}
					}
				}
			}
		}
	}
}
MOTION
Frames: 4
Frame Time: 0.033333
0.000000 0.000000 0.000000 0.000008 0.000000 -0.000000 -0.000000 0.000000 -0.000000 -0.030074 -1.997924 -0.873232 -1.979705 6.046664 -4.570266 -11.904812 15.293326 28.694912 0.109394 -0.175481 21.783683 1.363290 -2.997885 21.139637 4.086576 -9.492388 19.227812 4.487663 -19.939165 15.795948 2.575479 -4.861101 6.671673 -5.722805 11.396948 8.672160 -0.129574 -0.007850 0.657513 3.433725 -0.338819 -17.540903 3.834634 -10.077046 8.486977 0.000729 -0.000020 -0.003715 0.000101 -0.000138 0.000004 4.971722 -10.255679 9.429252 -0.480060 -0.016099 -2.433256 -4.238305 0.577485 -21.786289 -3.376626 10.761305 15.027393 -0.000869 0.000006 -0.003699 0.008762 -0.000457 0.038597 0.119866 0.982667 1.037077 0.917530 -0.020778 6.784383 -0.003572 -0.188671 0.020278 0.046385 0.965796 -1.521714 0.000078 -0.000112 -0.000056 -0.000045 -0.014955 0.015042 -3.115013 -0.431126 0.928374 -3.592912 -0.619394 1.095696 0.845418 0.173670 -0.292904 -2.253116 0.258698 -10.658942 4.370589 -0.010994 5.599681 2.454856 -4.912556 22.853425 0.007764 0.129277 -3.158396 0.793897 4.044943 -5.850573 -3.475875 4.274685 -9.228283 -0.004725 -0.003787 0.005758 -0.802382 0.160644 -0.479866 -0.804182 0.123473 -0.482645 0.440664 0.955631 2.483031 2.222177 -1.273996 7.567942 -0.022149 -0.254612 -6.234101 -4.020103 1.381287 7.488927 2.565141 -5.569913 -1.494711 -0.003673 0.003227 -0.002363 0.036722 0.063820 2.451881 -0.000913 0.100574 2.451955 2.348260 -1.233874 1.352335 -2.058797 -0.996450 2.495788 -1.791641 -0.992014 2.285543 2.445525 0.610787 3.781286 10.344433 0.977939 -0.280364 5.509732 0.511530 -0.090548 5.880365 0.529978 -0.207447 4.966229 4.064022 -4.888109 -0.000031 0.000324 33.480102 -0.441786 -0.458728 -72.796108 -0.000059 -0.000072 -21.993988 0.000020 -0.000008 -0.026807 0.000002 -0.000016 0.012745 -0.000095 -0.000108 -34.639875 0.000035 0.000015 0.015166 0.000025 -0.000010 0.012721 -0.000047 -0.000054 -24.223443 0.000013 -0.000013 -0.000053 6.551693 2.008145 13.362838 5.805977 -0.885836 12.387920 -12.810626 -1.803831 -16.140982 0.024197 -0.030045 11.786616 9.655031 0.978705 -14.662656 0.023271 -0.032285 11.715897 -15.340265 -0.212863 21.410616 0.050321 0.015195 11.755984 -13.186780 6.829641 22.586887 0.050150 0.014809 11.743100 -0.026694 -0.063716 -5.395511 -0.004431 -0.052667 11.750677 0.000067 -0.000043 11.750693 
0.000000 0.000000 0.000000 0.000008 0.000000 -0.000000 -0.000000 0.000000 -0.000000 -0.030074 -1.997924 -0.873232 -2.084440 6.174532 -4.736928 -11.026721 13.898194 28.711957 -0.329016 0.872225 21.534601 0.819282 -1.637926 20.766840 3.580884 -8.104997 18.641246 4.441879 -19.200703 15.324523 2.707882 -4.971424 6.875699 -5.702058 11.403614 8.538405 -0.124973 -0.007547 0.634152 3.408232 -0.332302 -17.407763 3.840021 -10.076687 8.488733 0.000722 -0.000019 -0.003681 0.000101 -0.000137 0.000004 4.979306 -10.255650 9.456626 -0.522435 -0.016538 -2.647913 -4.206642 0.566849 -21.617422 -3.379208 10.760738 15.027471 -0.000869 0.000006 -0.003699 0.008762 -0.000457 0.038597 0.119860 0.982642 1.245269 0.917530 -0.020778 6.784383 -0.003572 -0.188671 0.020279 0.046362 0.965522 -1.774920 0.000078 -0.000112 -0.000056 -0.000045 -0.014955 0.015042 -3.011841 -0.412917 0.896750 -3.480237 -0.599164 1.061525 0.719162 0.154067 -0.253058 -2.358746 0.197213 -11.762943 4.463133 0.139765 6.596247 2.466404 -4.892228 23.022222 0.008353 0.135910 -3.320759 0.786843 4.040401 -5.766669 -3.479527 4.275137 -9.196386 -0.005096 -0.004015 0.005709 -0.802191 0.160645 -0.479873 -0.804182 0.123473 -0.482645 0.507155 1.079277 3.391233 2.226256 -1.294918 7.774663 -0.022263 -0.255411 -6.253771 -4.015335 1.381722 7.520789 2.565140 -5.569913 -1.494710 -0.003625 0.003227 -0.002369 0.036643 0.063820 2.451881 -0.000913 0.100573 2.451955 2.504362 -1.206368 1.321428 -2.012270 -0.982552 2.468761 -1.698437 -0.967239 2.249418 2.099661 0.660978 3.463371 10.447043 0.987065 -0.283941 5.609826 0.520744 -0.093195 5.924874 0.533992 -0.208647 4.836601 2.927197 -4.573811 -0.000030 0.000325 33.480102 -0.441788 -0.458728 -72.796102 -0.000060 -0.000071 -21.993986 0.000019 -0.000007 -0.026807 0.000002 -0.000015 0.012745 -0.000095 -0.000108 -34.639875 0.000036 0.000016 0.015160 0.000025 -0.000009 0.012716 -0.000048 -0.000054 -24.223459 0.000013 -0.000013 -0.000050 6.267702 1.990368 12.789394 6.035063 -0.896436 12.874731 -12.810623 -1.803836 -16.140990 0.024228 -0.030033 11.786655 9.655030 0.978706 -14.662659 0.023230 -0.032296 11.715958 -16.591537 0.131035 20.914750 0.050286 0.015125 11.755973 -14.471451 6.963480 22.210150 0.050193 0.014889 11.743078 -0.026250 -0.062664 -4.922554 -0.004481 -0.052606 11.750675 0.000068 -0.000043 11.750688 
0.000000 0.000000 0.000000 0.000008 0.000000 -0.000000 -0.000000 0.000000 -0.000000 -0.030074 -1.997924 -0.873232 -2.177824 6.265130 -4.885691 -10.037684 12.339420 28.762610 -0.752125 1.884072 21.300421 0.277939 -0.262324 20.432390 3.041143 -6.565996 18.059840 4.408246 -18.476686 14.860817 2.820774 -5.048671 7.056421 -5.686405 11.409338 8.431765 -0.113116 -0.006770 0.573961 3.381135 -0.325446 -17.266339 3.843454 -10.079151 8.489743 0.000729 -0.000020 -0.003715 0.000101 -0.000137 0.000004 4.985548 -10.255590 9.480762 -0.567263 -0.016833 -2.875001 -4.172302 0.555434 -21.434476 -3.382506 10.759915 15.028458 -0.000868 0.000006 -0.003699 0.008762 -0.000455 0.038597 0.119819 0.982456 1.449946 0.917530 -0.020778 6.784382 -0.003572 -0.188671 0.020278 0.046370 0.965630 -2.018297 0.000078 -0.000112 -0.000056 -0.000045 -0.014955 0.015042 -2.859765 -0.386169 0.850097 -3.323406 -0.571100 1.013881 0.582425 0.132734 -0.209955 -2.520807 0.209384 -13.099831 4.623667 0.255109 7.834857 2.475829 -4.869899 23.176910 0.008957 0.142490 -3.481890 0.779796 4.035739 -5.682252 -3.483141 4.275871 -9.164629 -0.005082 -0.003934 0.005706 -0.802253 0.160644 -0.479857 -0.804181 0.123472 -0.482645 0.633822 1.147215 4.533648 2.231985 -1.322621 7.972407 -0.022334 -0.255911 -6.266074 -4.008961 1.382512 7.551984 2.565140 -5.569914 -1.494711 -0.003664 0.003255 -0.002355 0.036712 0.063820 2.451880 -0.000913 0.100574 2.451955 2.661290 -1.178775 1.290274 -1.936058 -0.964788 2.436901 -1.604573 -0.942380 2.212981 1.157824 0.195513 3.166175 10.550358 0.996230 -0.287561 5.710795 0.530050 -0.095905 5.969698 0.538032 -0.209858 5.047503 0.815439 -4.330798 -0.000029 0.000325 33.480102 -0.441787 -0.458728 -72.796108 -0.000059 -0.000072 -21.993983 0.000020 -0.000008 -0.026805 0.000002 -0.000015 0.012747 -0.000095 -0.000109 -34.639871 0.000035 0.000015 0.015166 0.000025 -0.000010 0.012721 -0.000048 -0.000054 -24.223454 0.000013 -0.000013 -0.000048 5.942097 1.978485 12.130464 6.272058 -0.905352 13.378208 -12.810624 -1.803836 -16.140980 0.024327 -0.030016 11.786780 9.655030 0.978687 -14.662664 0.023265 -0.032294 11.715903 -16.994101 0.361606 20.239442 0.050319 0.015185 11.755984 -14.909909 6.947154 21.570081 0.050134 0.014788 11.743104 -0.025971 -0.062000 -4.378788 -0.004437 -0.052660 11.750675 0.000068 -0.000042 11.750692 
0.000000 0.000000 0.000000 0.000008 0.000000 -0.000000 -0.000000 0.000000 -0.000000 -0.030074 -1.997924 -0.873232 -2.263883 6.319354 -5.003622 -8.940144 10.629039 28.856713 -1.154133 2.856259 21.075461 -0.252002 1.109788 20.128158 2.482640 -4.904358 17.508640 4.321144 -17.534190 14.354974 2.922306 -5.085310 7.212778 -5.676375 11.413729 8.356727 -0.093372 -0.005506 0.473746 3.352304 -0.318228 -17.115957 3.849639 -10.078108 8.491504 0.000729 -0.000019 -0.003715 0.000101 -0.000137 0.000004 4.990777 -10.255257 9.503541 -0.614728 -0.016951 -3.115435 -4.134866 0.543128 -21.235241 -3.383350 10.759538 15.028696 -0.000859 0.000007 -0.003701 0.008762 -0.000457 0.038597 0.119849 0.982591 1.646620 0.917530 -0.020778 6.784382 -0.003572 -0.188671 0.020278 0.046525 0.967480 -2.239910 0.000078 -0.000112 -0.000055 -0.000045 -0.014955 0.015042 -2.658410 -0.350966 0.788219 -3.124017 -0.535624 0.953215 0.444147 0.111053 -0.166410 -2.712828 0.253099 -14.504786 4.815331 0.360027 9.142251 2.482798 -4.849662 23.317892 0.009549 0.148732 -3.634747 0.777988 4.026079 -5.602140 -3.486740 4.276860 -9.132826 -0.004807 -0.003653 0.005721 -0.802394 0.160644 -0.479887 -0.804182 0.123473 -0.482645 0.792930 1.198571 5.741168 2.238898 -1.346756 8.148949 -0.022310 -0.255685 -6.260687 -3.999768 1.377765 7.574839 2.565141 -5.569913 -1.494710 -0.003817 0.003287 -0.002333 0.036698 0.063820 2.451881 -0.000913 0.100573 2.451956 2.830604 -1.149662 1.256735 -1.834345 -0.943651 2.400872 -1.509605 -0.917338 2.176079 -0.120286 -0.565748 2.854079 10.651444 1.005201 -0.291109 5.805689 0.538774 -0.098444 6.013117 0.541946 -0.211033 5.542831 -1.854014 -4.266126 -0.000029 0.000324 33.480102 -0.441787 -0.458728 -72.796108 -0.000059 -0.000073 -21.993986 0.000020 -0.000008 -0.026805 0.000003 -0.000016 0.012743 -0.000096 -0.000109 -34.639875 0.000036 0.000016 0.015166 0.000025 -0.000010 0.012720 -0.000048 -0.000054 -24.223452 0.000013 -0.000013 -0.000050 5.581847 1.976340 11.399960 6.519483 -0.912308 13.903503 -12.810625 -1.803837 -16.140985 0.024194 -0.030047 11.786608 9.655031 0.978684 -14.662669 0.023257 -0.032289 11.715922 -16.127767 0.363253 19.477983 0.050312 0.015174 11.755985 -14.069338 6.706790 20.714328 0.050147 0.014812 11.743096 -0.025245 -0.060274 -3.771969 -0.004435 -0.052641 11.750674 0.000067 -0.000042 11.750690 
